<svg width="28" height="28" viewBox="0 0 28 28" fill="none" xmlns="http://www.w3.org/2000/svg">
<path d="M5.3439 18.2605C5.4101 18.9125 5.76283 19.4973 6.26479 19.8923C5.9838 20.2229 5.81373 20.6505 5.81373 21.1173V22.8674C5.81373 23.6217 6.24909 24.2715 6.88723 24.5767C6.85108 24.751 6.83192 24.9315 6.83192 25.1164C6.83192 26.5794 8.02218 27.7697 9.48514 27.7697C10.9482 27.7697 12.1384 26.5794 12.1384 25.1164C12.1384 24.9965 12.1297 24.8786 12.1142 24.7629H16.4784C16.4629 24.8787 16.4541 24.9965 16.4541 25.1164C16.4541 26.5794 17.6444 27.7697 19.1074 27.7697C20.5703 27.7697 21.7606 26.5794 21.7606 25.1164C21.7606 23.6534 20.5703 22.4631 19.1074 22.4631C18.2199 22.4631 17.4334 22.9016 16.9514 23.5727H11.6411C11.1591 22.9016 10.3726 22.4631 9.48509 22.4631C8.63243 22.4631 7.87295 22.8679 7.38721 23.4949C7.1587 23.3782 7.0037 23.1417 7.0037 22.8674V21.1174C7.0037 20.7287 7.32011 20.4125 7.70905 20.4125C7.71087 20.4125 7.71263 20.4123 7.71444 20.4122C7.71807 20.4123 7.72169 20.4125 7.72526 20.4125H21.6386C22.789 20.4125 23.9806 19.5596 24.3514 18.4708L27.8869 8.0898C28.087 7.50244 28.0189 6.9102 27.7001 6.46492C27.3814 6.01964 26.8427 5.76421 26.2223 5.76421H24.9534L21.1295 1.92204C20.535 1.32765 19.5714 1.32249 18.9699 1.90594L12.5168 3.64174L10.7845 0.535696C10.6244 0.248702 10.2621 0.14584 9.97497 0.305829L6.51024 2.23816C6.37236 2.31501 6.27074 2.44355 6.22767 2.59538C6.18454 2.7472 6.20353 2.90991 6.28043 3.04774L7.79543 5.76415H6.36017C5.97746 5.76415 5.61696 5.86191 5.30435 6.0452L5.02336 3.23595C4.99293 2.93173 4.73693 2.70011 4.43124 2.70011H0.595071C0.266422 2.70011 0 2.96653 0 3.29518C0 3.62383 0.266422 3.89025 0.595071 3.89025H3.89273L5.3439 18.2605ZM19.1075 23.6532C19.9142 23.6532 20.5706 24.3096 20.5706 25.1163C20.5706 25.9231 19.9142 26.5795 19.1075 26.5795C18.3007 26.5795 17.6444 25.9231 17.6444 25.1163C17.6444 24.3095 18.3007 23.6532 19.1075 23.6532ZM9.4852 23.6532C10.2919 23.6532 10.9483 24.3096 10.9483 25.1163C10.9483 25.9231 10.2919 26.5795 9.4852 26.5795C8.67845 26.5795 8.02212 25.9231 8.02212 25.1163C8.02212 24.3095 8.67845 23.6532 9.4852 23.6532ZM20.2872 2.76256L23.2745 5.76415H16.7942L19.7947 2.76364C19.9307 2.62757 20.152 2.62757 20.2872 2.76256ZM17.2831 3.59215L15.1111 5.76415H13.7005L13.1145 4.71349L17.2831 3.59215ZM7.60959 2.98773L10.0349 1.6351L12.3378 5.76415H9.15808L7.60959 2.98773ZM26.7605 7.70601L23.225 18.087C23.019 18.6918 22.2777 19.2223 21.6388 19.2223H7.72543C7.13586 19.2223 6.58743 18.7268 6.52792 18.1404L6.31767 16.0665H19.1116C19.4402 16.0665 19.7066 15.8 19.7066 15.4714C19.7066 15.1427 19.4402 14.8763 19.1116 14.8763H6.19707L5.49284 7.92975C5.49284 7.92958 5.49284 7.92953 5.49284 7.92942L5.49273 7.92811C5.46592 7.6635 5.54254 7.41669 5.7086 7.23296C5.87097 7.05325 6.10236 6.95429 6.36017 6.95429H24.7007C24.7027 6.95435 24.7046 6.95458 24.7065 6.95458C24.7085 6.95458 24.7104 6.95435 24.7123 6.95429H26.2225C26.4576 6.95429 26.6388 7.0265 26.7326 7.15758C26.8265 7.28861 26.8363 7.4834 26.7605 7.70601Z" fill="white"/>
</svg>
