<svg width="18" height="18" viewBox="0 0 18 18" fill="none" xmlns="http://www.w3.org/2000/svg">
<path d="M17.4597 13.6489L13.8845 11.2666C13.3604 10.9184 12.6433 11.0356 12.2572 11.5321L11.216 12.8732C11.1333 12.9801 10.985 13.0111 10.8678 12.9456L10.6679 12.8353C10.0232 12.4836 9.21641 12.0458 7.58914 10.4151C5.96186 8.78778 5.52057 7.98104 5.16891 7.33634L5.05859 7.13638C4.99308 7.01916 5.02411 6.86746 5.13099 6.78472L6.46866 5.74354C6.96512 5.35741 7.07889 4.6403 6.73413 4.11626L4.35183 0.541086C3.99327 -0.000189515 3.27617 -0.15878 2.7211 0.172191L1.22829 1.06857C0.718038 1.37196 0.349144 1.85118 0.187106 2.42004C-0.364513 4.4231 0.0388583 7.87417 5.08272 12.918C6.91685 14.7522 8.68203 16.1105 10.3231 16.9517C11.678 17.6482 12.9674 17.9998 14.1465 17.9998H14.1706C14.6464 17.9998 15.1187 17.9378 15.5773 17.8136C16.1461 17.6551 16.6253 17.2862 16.9253 16.7759L17.8251 15.2831C18.1595 14.7246 18.0009 14.0075 17.4597 13.6489ZM4.2415 7.58801L4.34838 7.78108C4.73106 8.48095 5.20339 9.34975 6.92719 11.0736C8.651 12.7974 9.5198 13.2697 10.2197 13.6524L10.4127 13.7592C10.9299 14.0488 11.5953 13.9144 11.9538 13.4421L12.995 12.1044C13.0846 11.9906 13.2501 11.963 13.3708 12.0423L16.9425 14.4246C17.0666 14.5074 17.1046 14.6729 17.0253 14.8004L16.1289 16.2967C15.953 16.6001 15.6703 16.8173 15.3359 16.9138C14.9601 17.0172 14.5568 17.069 14.1396 17.069C11.7608 17.069 8.93715 15.4486 5.74466 12.2595C1.01798 7.5294 0.60082 4.43344 1.08693 2.66827C1.18347 2.3304 1.40067 2.04769 1.7075 1.87187L3.20032 0.975486C3.24514 0.947905 3.29341 0.934114 3.34512 0.934114C3.43821 0.934114 3.5244 0.978934 3.57611 1.05823L4.86897 3.00268L5.95497 4.63341C6.03426 4.75407 6.00668 4.91956 5.89636 5.0092L4.55868 6.05038C4.08636 6.40548 3.94845 7.07087 4.2415 7.58801Z" fill="#E9E9E9"/>
</svg>
