<svg width="131" height="163" viewBox="0 0 131 163" fill="none" xmlns="http://www.w3.org/2000/svg">
<path fill-rule="evenodd" clip-rule="evenodd" d="M34.3301 0H96.8513V57.7079L69.6864 28.647L90.8769 6.0074L82.2218 5.9659L65.3998 24.0613L46.144 44.7742V5.9853H40.0697V57.1754H40.0711V60.2875L42.984 57.1754L46.144 53.7992L65.6032 33.0093L96.8513 66.4386V99.603H34.3301V0ZM65.5834 93.5617L42.4317 69.1109L65.5834 44.6601L88.735 69.1109L65.5834 93.5617ZM65.5834 84.9678L50.5687 69.1109L65.5834 53.2537L80.598 69.1109L65.5834 84.9678Z" fill="white"/>
<path d="M6.91626 109.856H9.03306V117.666L17.3795 109.856H20.1827L10.1496 119.193L20.9656 130.676H18.1866L9.03306 120.952V130.676H6.91626V109.856ZM33.9755 109.334C37.1266 109.334 39.7654 110.388 41.887 112.49C44.0086 114.592 45.0719 117.183 45.0719 120.257C45.0719 123.306 44.0136 125.892 41.8968 128.013C39.775 130.135 37.1942 131.198 34.1447 131.198C31.0614 131.198 28.4565 130.139 26.3349 128.028C24.2133 125.916 23.15 123.359 23.15 120.358C23.15 118.357 23.6333 116.506 24.5998 114.795C25.5663 113.089 26.8858 111.751 28.5581 110.784C30.2253 109.818 32.0327 109.334 33.9755 109.334ZM34.0675 111.364C32.5307 111.364 31.071 111.765 29.689 112.567C28.3115 113.37 27.2338 114.447 26.4556 115.805C25.6823 117.168 25.2958 118.681 25.2958 120.353C25.2958 122.823 26.1513 124.911 27.8669 126.612C29.5826 128.318 31.6509 129.168 34.0675 129.168C35.6864 129.168 37.1798 128.777 38.5523 127.994C39.9298 127.211 41.0027 126.138 41.771 124.78C42.5395 123.422 42.9261 121.914 42.9261 120.252C42.9261 118.599 42.5395 117.105 41.771 115.772C41.0027 114.438 39.9152 113.37 38.5185 112.567C37.1218 111.765 35.6382 111.364 34.0675 111.364ZM49.2523 109.856H53.4037C55.7814 109.856 57.3909 109.958 58.222 110.166C59.4109 110.46 60.3824 111.059 61.1363 111.973C61.8951 112.881 62.272 114.027 62.272 115.404C62.272 116.791 61.9046 117.932 61.1653 118.836C60.4308 119.735 59.4159 120.339 58.1254 120.653C57.1781 120.88 55.4143 120.991 52.8285 120.991H51.3401V130.676H49.2523V109.856ZM51.3401 111.886V118.961L54.8681 119.005C56.2938 119.005 57.3377 118.874 57.9998 118.613C58.662 118.352 59.1839 117.937 59.5609 117.357C59.9379 116.777 60.1262 116.124 60.1262 115.409C60.1262 114.713 59.9379 114.07 59.5609 113.49C59.1839 112.91 58.6812 112.5 58.0626 112.253C57.4441 112.007 56.434 111.886 55.0227 111.886H51.3401ZM74.939 109.856L84.6531 130.676H82.4155L79.1629 123.833H70.1401L66.9068 130.676H64.587L74.4171 109.856H74.939ZM74.678 114.225L71.097 121.803H78.2447L74.678 114.225ZM104.739 130.676H102.472L95.5611 114.558L88.5339 130.676H86.2673L95.3435 109.856H95.8074L104.739 130.676ZM125.099 130.676H122.833L115.922 114.558L108.895 130.676H106.628L115.704 109.856H116.168L125.099 130.676Z" fill="white"/>
<path fill-rule="evenodd" clip-rule="evenodd" d="M38.4075 141.974V161.575H39.2765V151.89H41.3832L48.8791 161.575H49.8945L42.4041 151.897L43.6377 151.89C44.8647 151.883 46.3712 151.773 47.5069 151.271C48.3503 150.897 49.0374 150.345 49.5271 149.558C50.0306 148.749 50.2374 147.846 50.2374 146.898C50.2374 145.768 49.9431 144.731 49.2141 143.857C48.5047 143.006 47.6058 142.489 46.5267 142.244C45.2358 141.951 43.2802 141.974 41.9543 141.974H38.4075ZM39.2765 142.785H43.5685C44.5574 142.785 45.9369 142.825 46.8637 143.196C47.6046 143.492 48.196 143.983 48.638 144.647C49.0874 145.322 49.3104 146.078 49.3104 146.888C49.3104 147.709 49.0979 148.477 48.6524 149.167C48.201 149.866 47.5706 150.361 46.8002 150.668C45.8267 151.056 44.5138 151.116 43.4765 151.108L39.2765 151.074V142.785ZM55.9218 141.974V161.575H66.5339V160.764H56.7908V151.339H66.5339V150.528H56.7908V142.785H66.6209V141.974H55.9218ZM69.5096 158.505C70.1172 159.521 70.9001 160.544 71.871 161.182C72.8146 161.803 73.8533 162.097 74.9821 162.097C76.445 162.097 77.6964 161.617 78.7479 160.597C79.7379 159.636 80.2834 158.49 80.2834 157.1C80.2834 156.083 79.919 155.145 79.3712 154.3C78.549 153.031 77.006 151.795 75.8002 150.907C74.9625 150.29 73.7784 149.492 73.029 148.769C72.5788 148.319 72.1237 147.785 71.8637 147.198C71.6442 146.703 71.5262 146.178 71.5262 145.637C71.5262 144.724 71.8616 143.939 72.5228 143.31C73.2103 142.657 74.0752 142.379 75.0159 142.379C75.7755 142.379 76.4875 142.574 77.1402 142.963C77.7951 143.353 78.4328 144.044 78.9543 144.691L79.6899 144.133C79.0821 143.364 78.3305 142.561 77.5229 142.102C76.7587 141.668 75.9383 141.452 75.0595 141.452C74.2476 141.452 73.488 141.633 72.7742 142.021C72.0986 142.388 71.5566 142.888 71.1684 143.552C70.7782 144.22 70.5992 144.946 70.5992 145.719C70.5992 146.77 70.9604 147.7 71.5856 148.54C72.2411 149.421 73.8311 150.602 74.7106 151.263C75.9655 152.208 77.5072 153.448 78.4184 154.738C78.9232 155.453 79.2404 156.256 79.2404 157.139C79.2404 157.871 79.0442 158.557 78.6728 159.188C78.2796 159.856 77.7147 160.367 77.0304 160.728C76.3267 161.099 75.5703 161.286 74.7743 161.286C72.7014 161.286 71.2385 159.732 70.2341 158.069L69.5096 158.505ZM83.8219 142.785H88.4615V161.575H89.3595V142.785H93.999V141.974H83.8219V142.785Z" fill="white"/>
<path fill-rule="evenodd" clip-rule="evenodd" d="M0.618652 135.243H130.528V137.056H0.618652V135.243Z" fill="white"/>
</svg>
